<svg xmlns="http://www.w3.org/2000/svg" xmlns:xlink="http://www.w3.org/1999/xlink" width="100" zoomAndPan="magnify" viewBox="0 0 75 30.000001" height="40" preserveAspectRatio="xMidYMid meet" version="1.0"><defs><g/></defs><g fill="#d9d9d9" fill-opacity="1"><g transform="translate(5.450427, 22.150418)"><g><path d="M 7.859375 -16.1875 C 7.953125 -16.207031 8.050781 -16.21875 8.15625 -16.21875 C 8.257812 -16.21875 8.410156 -16.21875 8.609375 -16.21875 C 10.378906 -16.21875 11.679688 -15.832031 12.515625 -15.0625 C 13.347656 -14.289062 13.765625 -13.109375 13.765625 -11.515625 C 13.765625 -9.898438 13.34375 -8.703125 12.5 -7.921875 C 11.664062 -7.148438 10.367188 -6.765625 8.609375 -6.765625 C 8.410156 -6.765625 8.257812 -6.765625 8.15625 -6.765625 C 8.050781 -6.773438 7.953125 -6.785156 7.859375 -6.796875 Z M 0.71875 0 L 0.71875 -16.203125 L 6.484375 -16.203125 L 6.484375 0 Z M 0.71875 0 "/></g></g></g><g fill="#d9d9d9" fill-opacity="1"><g transform="translate(20.033392, 22.150418)"><g><path d="M 7.859375 -16.1875 C 7.953125 -16.207031 8.050781 -16.21875 8.15625 -16.21875 C 8.257812 -16.21875 8.410156 -16.21875 8.609375 -16.21875 C 10.378906 -16.21875 11.679688 -15.832031 12.515625 -15.0625 C 13.347656 -14.289062 13.765625 -13.109375 13.765625 -11.515625 C 13.765625 -9.898438 13.34375 -8.703125 12.5 -7.921875 C 11.664062 -7.148438 10.367188 -6.765625 8.609375 -6.765625 C 8.410156 -6.765625 8.257812 -6.765625 8.15625 -6.765625 C 8.050781 -6.773438 7.953125 -6.785156 7.859375 -6.796875 Z M 0.71875 0 L 0.71875 -16.203125 L 6.484375 -16.203125 L 6.484375 0 Z M 0.71875 0 "/></g></g></g><g fill="#d9d9d9" fill-opacity="1"><g transform="translate(34.616358, 22.150418)"><g><path d="M 7.046875 0 L 11.84375 -7.5 L 11.84375 0 Z M 6.484375 0 L 0.71875 0 L 0.71875 -16.203125 L 6.484375 -16.203125 Z M 6.484375 0 "/></g></g></g><g fill="#d9d9d9" fill-opacity="1"><g transform="translate(47.534205, 22.150418)"><g><path d="M 8.09375 0.203125 L 8.09375 -8.046875 L 13.90625 -8.046875 C 13.90625 -7.941406 13.914062 -7.785156 13.9375 -7.578125 C 13.945312 -7.203125 13.953125 -6.957031 13.953125 -6.84375 C 13.953125 -4.695312 13.445312 -3.019531 12.4375 -1.8125 C 11.4375 -0.601562 9.988281 0.0664062 8.09375 0.203125 Z M 7.671875 -16.203125 L 13.28125 -16.203125 L 13.28125 -9.953125 Z M 6.703125 0.203125 C 4.640625 0.0234375 3.078125 -0.75 2.015625 -2.125 C 0.953125 -3.507812 0.421875 -5.460938 0.421875 -7.984375 C 0.421875 -10.515625 0.953125 -12.472656 2.015625 -13.859375 C 3.078125 -15.242188 4.640625 -16.023438 6.703125 -16.203125 Z M 6.703125 0.203125 "/></g></g></g><g fill="#d9d9d9" fill-opacity="1"><g transform="translate(62.544402, 22.150418)"><g><path d="M 5.921875 -2.1875 C 5.921875 -1.539062 5.679688 -0.976562 5.203125 -0.5 C 4.722656 -0.03125 4.15625 0.203125 3.5 0.203125 C 2.84375 0.203125 2.273438 -0.0234375 1.796875 -0.484375 C 1.328125 -0.953125 1.09375 -1.519531 1.09375 -2.1875 C 1.09375 -2.851562 1.328125 -3.421875 1.796875 -3.890625 C 2.265625 -4.359375 2.832031 -4.59375 3.5 -4.59375 C 4.15625 -4.59375 4.722656 -4.351562 5.203125 -3.875 C 5.679688 -3.40625 5.921875 -2.84375 5.921875 -2.1875 Z M 5.921875 -2.1875 "/></g></g></g></svg>